<svg width="853" height="148" viewBox="0 0 853 148" fill="none" xmlns="http://www.w3.org/2000/svg">
<path fill-rule="evenodd" clip-rule="evenodd" d="M0 68.5913H13.3C33.4 68.5913 59.1 70.4313 70 72.5618C77.7 74.1113 99.4 72.9492 110 70.5281C120.1 68.2039 132.1 63.9429 133.5 62.2966C134.1 61.7155 137 60.3598 140 59.3913C143 58.4229 151.6 54.7429 159 51.1598C174.3 43.7998 180.9 41.1851 189.5 39.0546C196.5 37.3114 208.8 37.1177 216.2 38.6672C230.9 41.6693 247 53.6777 269.3 78.2755C275.4 84.9576 280.9 90.7681 281.7 91.1554C282.4 91.5428 283 92.4144 283 93.0923C283 94.7386 303.4 115.075 309.9 119.917C320.2 127.568 331.1 131.151 339.7 129.892C353 127.858 367.5 115.85 382.8 93.9639C395.5 75.8544 410 53.2903 410 51.5471C410 50.7724 410.4 50.1914 410.8 50.1914C411.3 50.1914 415.1 45.2524 419.4 39.1514C446.7 0.124133 466.5 -8.59163 490.4 7.96834C500.7 15.1346 514.1 30.4356 537.1 61.5218C539.5 64.8145 542.1 67.6229 542.8 67.6229C543.4 67.6229 544 68.3008 544 69.1723C544 71.3997 557.8 87.5723 566 95.126C580 107.909 594 113.332 607.7 111.202C615.8 109.943 627.8 104.616 638.6 97.547C649.2 90.6712 665.1 79.3407 667.1 77.4039C667.9 76.5323 670.4 74.9829 672.6 73.8208C673.411 73.3721 674.653 72.7071 676.093 71.937C678.381 70.7121 681.167 69.2215 683.5 67.9134C708.9 54.1619 726 52.9998 769.8 61.8124C790.7 65.9766 803.6 67.4292 829.8 68.2039L853 68.8818V85.8013L840.3 86.4783C827.1 87.1553 785 84.6408 784 83.0934C783.6 82.5131 757.2 77.0972 743.5 74.8728C735.2 73.422 715.8 74.2925 707.5 76.3234C698.3 78.6446 680.8 86.5751 676.7 90.2501C675.2 91.6041 673.6 92.7647 673.2 92.7647C672.3 92.7647 660.8 100.308 649.8 108.239C630.5 122.166 617.1 128.355 604.5 129.226C585.8 130.58 569.1 120.328 547.8 94.4088C544.4 90.3469 541.3 86.9619 540.8 86.9619C540.4 86.9619 540 86.5751 540 85.9948C540 85.5112 535.1 78.3544 529 70.3272C496.6 26.6128 481.7 15.104 462.9 18.7791C450.1 21.2936 437.4 32.8025 420.2 57.6578C416.8 62.4935 414 67.039 414 67.6192C414 68.2962 413.2 69.4568 412.2 70.3272C411.2 71.2944 405.5 79.6117 399.5 88.8962C373.2 129.903 356.3 146.054 338.3 147.601C324.5 148.858 313.9 143.056 293.3 122.939C284.9 114.719 278 107.852 278 107.465C278 107.175 275.7 104.274 272.8 101.082C253.7 79.515 241.4 68.4897 230 62.4935C219 56.594 214.7 55.5301 203 55.5301C193.7 55.6268 191.4 56.0137 183 58.8183C172.2 62.4935 152 71.9714 152 73.422C152 73.9056 150.8 74.6793 149.3 74.9695C147.7 75.3563 141.2 77.7742 134.7 80.3854C115.3 88.2192 106.6 90.0567 85.5 90.5403C72.8 90.9271 63.5 90.5403 54 89.4765C46.6 88.7027 35.9 87.7356 30.3 87.4455C27.653 87.3107 24.2728 87.1551 20.8604 86.9981C16.9245 86.8169 12.9459 86.6337 10 86.4783L0 85.8981V68.5913ZM350 41.4756C350 41.9598 349.5 42.444 348.9 42.444C348.4 42.444 348.2 41.9598 348.5 41.4756C348.8 40.8946 349.3 40.5072 349.6 40.5072C349.8 40.5072 350 40.8946 350 41.4756ZM600.5 45.3493C600.2 45.8335 599.3 46.3177 598.7 46.3177C598 46.3177 598.1 45.9303 599 45.3493C600.9 44.1872 601.3 44.1872 600.5 45.3493ZM188.1 79.2248C188.7 79.2248 188.8 78.7413 188.5 78.2577C188.2 77.6774 187.4 77.2906 186.9 77.2906C186.3 77.2906 186.2 77.6774 186.5 78.2577C186.8 78.7413 187.6 79.2248 188.1 79.2248ZM765.5 85.8981C767.2 85.8013 769.6 85.4145 771 85.0276C773.2 84.3506 773 84.2539 769.5 84.1572C767.3 84.1572 764.8 84.5441 764 85.0276C762.9 85.7046 763.2 85.8981 765.5 85.8981Z" fill="white"/>
</svg>
